<svg xmlns="http://www.w3.org/2000/svg" xmlns:xlink="http://www.w3.org/1999/xlink" xmlns:lucid="lucid" width="946" height="732"><g transform="translate(-104 -68)" lucid:page-tab-id="0_0"><path d="M210 666a6 6 0 0 1 6-6h808a6 6 0 0 1 6 6v108a6 6 0 0 1-6 6H216a6 6 0 0 1-6-6z" stroke="#3a414a" fill="#fff3d9"/><path d="M540 186a6 6 0 0 1 6-6h148a6 6 0 0 1 6 6v108a6 6 0 0 1-6 6H546a6 6 0 0 1-6-6z" stroke="#3a414a" fill="#6db1ff"/><use xlink:href="#a" transform="matrix(1,0,0,1,552,192) translate(8.14814814814816 24.333333333333332)"/><use xlink:href="#b" transform="matrix(1,0,0,1,552,192) translate(14.777777777777793 56.33333333333333)"/><use xlink:href="#c" transform="matrix(1,0,0,1,552,192) translate(23.703703703703717 88.33333333333333)"/><path d="M855.43 182.47a6 6 0 0 1 6-6h132a6 6 0 0 1 6 6v102c-24.04-18.04-39.02-18.04-48.1-18.04-14.4 0-33.55 18.04-47.95 18.04-8.92 0-24.04 0-47.95-18.04z" stroke="#3a414a" fill="#dedeff"/><path d="M863.43 192a6 6 0 0 1 6-6h132a6 6 0 0 1 6 6v102c-24.04-18.04-39.02-18.04-48.1-18.04-14.4 0-33.55 18.04-47.95 18.04-8.92 0-24.04 0-47.95-18.04z" stroke="#3a414a" fill="#dedeff"/><path d="M871.43 201.53a6 6 0 0 1 6-6h132a6 6 0 0 1 6 6v102c-24.04-18.04-39.02-18.04-48.1-18.04-14.4 0-33.55 18.03-47.95 18.03-8.92 0-24.04 0-47.95-18.04z" stroke="#3a414a" fill="#dedeff"/><use xlink:href="#d" transform="matrix(1,0,0,1,876.4330708661416,200.52941176470588) translate(24.469135802469133 17.77777777777778)"/><use xlink:href="#e" transform="matrix(1,0,0,1,876.4330708661416,200.52941176470588) translate(25.70370370370371 44.44444444444444)"/><use xlink:href="#f" transform="matrix(1,0,0,1,876.4330708661416,200.52941176470588) translate(38.04938271604939 71.11111111111111)"/><path d="M745.24 241.5H721.1v-3h24.12zm108.2 0H810.2v-3h43.23z" stroke="#3a414a" stroke-width=".05" fill="#3a414a"/><path d="M854.93 241.5h-1.53v-3h1.53z" fill="#3a414a"/><path d="M854.96 241.53h-1.6v-3.06h1.6zm-1.54-3v2.94h1.5v-2.94z" stroke="#3a414a" stroke-width=".05" fill="#3a414a"/><path d="M719.62 244.63L705.35 240l14.27-4.63z" fill="#3a414a"/><path d="M721.12 246.7L700.5 240l20.62-6.7zm-10.9-6.7l7.9 2.57v-5.14z" stroke="#3a414a" stroke-width=".05" fill="#3a414a"/><use xlink:href="#g" transform="matrix(1,0,0,1,745.2350289515894,224) translate(0 21.33333333333333)"/><path d="M540 426a6 6 0 0 1 6-6h148a6 6 0 0 1 6 6v108a6 6 0 0 1-6 6H546a6 6 0 0 1-6-6z" stroke="#3a414a" fill="#cfe4ff"/><use xlink:href="#h" transform="matrix(1,0,0,1,552,432) translate(7.012345679012341 26.77777777777778)"/><use xlink:href="#i" transform="matrix(1,0,0,1,552,432) translate(18.12345679012345 53.44444444444445)"/><use xlink:href="#j" transform="matrix(1,0,0,1,552,432) translate(23.648148148148152 80.11111111111111)"/><path d="M621.5 398.88h-3v-24.2h3zm0-66.88h-3v-30h3z" stroke="#3a414a" stroke-width=".05" fill="#3a414a"/><path d="M621.5 302.04h-3v-1.54h3z" fill="#3a414a"/><path d="M621.52 302.06h-3.04v-1.58h3.04zm-3-1.54v1.5h2.96v-1.5z" stroke="#3a414a" stroke-width=".05" fill="#3a414a"/><path d="M620 414.65l-4.63-14.27h9.26z" fill="#3a414a"/><path d="M620 419.5l-6.7-20.62h13.4zm-2.57-17.62l2.57 7.9 2.57-7.9z" stroke="#3a414a" stroke-width=".05" fill="#3a414a"/><use xlink:href="#k" transform="matrix(1,0,0,1,551.5555555555555,332) translate(35.95561728395061 14.222222222222223)"/><use xlink:href="#l" transform="matrix(1,0,0,1,551.5555555555555,332) translate(0.0049999999999954525 35.55555555555556)"/><use xlink:href="#m" transform="matrix(1,0,0,1,551.5555555555555,332) translate(78.8198148148148 35.55555555555556)"/><use xlink:href="#n" transform="matrix(1,0,0,1,551.5555555555555,332) translate(100.44944444444444 35.55555555555556)"/><path d="M264.73 182.87a11 11 0 0 1 10.54 0l99.46 54.26a3.27 3.27 0 0 1 0 5.74l-99.46 54.26a11 11 0 0 1-10.54 0l-99.46-54.26a3.27 3.27 0 0 1 0-5.74z" stroke="#3a414a" fill="#6db1ff"/><use xlink:href="#o" transform="matrix(1,0,0,1,165,185) translate(55.128456790123444 39.78777777777778)"/><use xlink:href="#p" transform="matrix(1,0,0,1,165,185) translate(49.511172839506166 66.45444444444445)"/><use xlink:href="#q" transform="matrix(1,0,0,1,165,185) translate(87.1654938271605 93.1211111111111)"/><path d="M930.6 98.6l1.15.26 1.1.45 1 .63.9.76.75.9.62 1 .45 1.08.27 1.15.1 1.1v68.54h-3v-68.4l-.07-.77-.16-.7-.26-.64-.37-.6-.46-.54-.52-.46-.6-.36-.66-.28-.68-.16-.77-.06H725.5v-3h204zm-409.17 2.9H276.06l-.76.06-.7.16-.64.28-.6.36-.54.46-.46.54-.37.6-.27.65-.17.7-.06.76v54.35h-3v-54.46l.1-1.1.26-1.16.45-1.1.63-1 .76-.9.9-.75 1-.62 1.08-.44 1.15-.27 1.1-.1h245.5z" stroke="#404040" stroke-width=".05" fill="#404040"/><path d="M936.93 175.97h-3v-1.54h3z" fill="#404040"/><path d="M936.96 176h-3.05v-1.6h3.06zm-3-1.54v1.5h2.95v-1.5z" stroke="#404040" stroke-width=".05" fill="#404040"/><path d="M270 176.18l-4.63-14.27h9.26z" fill="#404040"/><path d="M270 181.03l-6.7-20.62h13.4zm-2.57-17.62l2.57 7.92 2.57-7.9z" stroke="#404040" stroke-width=".05" fill="#404040"/><use xlink:href="#r" transform="matrix(1,0,0,1,521.4316793711624,84) translate(0 21.333333333333332)"/><use xlink:href="#s" transform="matrix(1,0,0,1,521.4316793711624,84) translate(72.44444444444444 21.333333333333332)"/><use xlink:href="#t" transform="matrix(1,0,0,1,521.4316793711624,84) translate(116.88888888888889 21.333333333333332)"/><path d="M407.9 241.5h-10.34v-3h10.34zm130.1 0h-29.46v-3H538z" stroke="#404040" stroke-width=".05" fill="#404040"/><path d="M539.5 241.5h-1.54v-3h1.54z" fill="#404040"/><path d="M539.52 241.53h-1.58v-3.06h1.58zm-1.53-3v2.94h1.48v-2.94z" stroke="#404040" stroke-width=".05" fill="#404040"/><path d="M396.06 244.63L381.8 240l14.26-4.63z" fill="#404040"/><path d="M397.56 246.7l-20.62-6.7 20.62-6.7zm-10.9-6.7l7.9 2.57v-5.14z" stroke="#404040" stroke-width=".05" fill="#404040"/><use xlink:href="#u" transform="matrix(1,0,0,1,407.89955163616105,218.66666666666666) translate(10.424753086419763 14.222222222222223)"/><use xlink:href="#v" transform="matrix(1,0,0,1,407.89955163616105,218.66666666666666) translate(0.005000000000002558 35.55555555555556)"/><use xlink:href="#w" transform="matrix(1,0,0,1,407.89955163616105,218.66666666666666) translate(21.634629629629632 35.55555555555556)"/><path d="M264.73 422.87a11 11 0 0 1 10.54 0l99.46 54.26a3.27 3.27 0 0 1 0 5.74l-99.46 54.26a11 11 0 0 1-10.54 0l-99.46-54.26a3.27 3.27 0 0 1 0-5.74z" stroke="#3a414a" fill="#cfe4ff"/><use xlink:href="#o" transform="matrix(1,0,0,1,165,425) translate(55.128456790123444 39.78777777777778)"/><use xlink:href="#p" transform="matrix(1,0,0,1,165,425) translate(49.511172839506166 66.45444444444445)"/><use xlink:href="#q" transform="matrix(1,0,0,1,165,425) translate(87.1654938271605 93.1211111111111)"/><path d="M417.5 481.5h-19.94v-3h19.94zm120.5 0h-19.06v-3H538z" stroke="#404040" stroke-width=".05" fill="#404040"/><path d="M539.5 481.5h-1.54v-3h1.54z" fill="#404040"/><path d="M539.52 481.52h-1.58v-3.04h1.58zm-1.53-3v2.96h1.48v-2.96z" stroke="#404040" stroke-width=".05" fill="#404040"/><path d="M396.06 484.63L381.8 480l14.26-4.63z" fill="#404040"/><path d="M397.56 486.7l-20.62-6.7 20.62-6.7zm-10.9-6.7l7.9 2.57v-5.14z" stroke="#404040" stroke-width=".05" fill="#404040"/><use xlink:href="#x" transform="matrix(1,0,0,1,417.50448990776596,448) translate(0.005000000000002558 14.222222222222223)"/><use xlink:href="#y" transform="matrix(1,0,0,1,417.50448990776596,448) translate(84.74574074074073 14.222222222222223)"/><use xlink:href="#z" transform="matrix(1,0,0,1,417.50448990776596,448) translate(28.029691358024685 35.55555555555556)"/><use xlink:href="#A" transform="matrix(1,0,0,1,417.50448990776596,448) translate(2.4247530864197415 56.88888888888889)"/><path d="M521.43 101.5H126.06l-.76.06-.7.16-.64.28-.6.36-.54.46-.46.54-.36.6-.28.65-.16.7-.06.76v367.88l.06.76.16.7.28.64.36.6.46.54.54.46.6.37.65.27.7.17.76.06h16.38v3h-16.5l-1.1-.1-1.16-.26-1.1-.45-1-.63-.9-.76-.75-.9-.62-1-.44-1.08-.27-1.15-.1-1.1V105.93l.1-1.1.26-1.16.45-1.1.63-1 .76-.9.9-.75 1-.62 1.08-.44 1.15-.27 1.1-.1h395.5zm409.18-2.9l1.15.26 1.1.45 1 .63.9.76.75.9.62 1 .45 1.08.27 1.15.1 1.1v68.54h-3v-68.4l-.07-.77-.16-.7-.26-.64-.37-.6-.46-.54-.52-.46-.6-.36-.66-.28-.68-.16-.77-.06H725.5v-3h204z" stroke="#404040" stroke-width=".05" fill="#404040"/><path d="M936.93 175.97h-3v-1.54h3z" fill="#404040"/><path d="M936.96 176h-3.05v-1.6h3.06zm-3-1.54v1.5h2.95v-1.5z" stroke="#404040" stroke-width=".05" fill="#404040"/><path d="M158.2 480l-14.26 4.63v-9.26z" fill="#404040"/><path d="M163.06 480l-20.62 6.7v-13.4zm-17.62 2.57l7.9-2.57-7.9-2.57zM725.7 472l-.5.4-1.68 1.3-1.64 1.14-1.06.67-1.6-2.52 1-.64 1.54-1.07 1.6-1.2.42-.37zm15.46-17.82l-1.58 2.38-2.46 3.4-2.28 2.87-.72.84-2.27-1.97.68-.78 2.2-2.78 2.4-3.3 1.53-2.32zm11.33-20.58l-.07.14-3.86 7.8-1.4 2.54-2.63-1.44 1.37-2.5 3.8-7.68.05-.08zm8.98-21.52l-4.26 10.82-2.8-1.1 4.27-10.82zm7.64-22.05l-3.7 11.03-2.83-.95 3.68-11.03zm7.4-22.06L772.8 379l-2.85-.95 3.7-11.04zm3.68-11.03l-2.85-.96 2.24-6.7h3.16zm28.78-75.87l-3.26 6.57-1.72 3.88-2.74-1.22 1.75-3.93 3.3-6.63zm12.04-19.5l-.32.4-2.38 3.3-2.62 3.93-1.1 1.84-2.58-1.56 1.15-1.9 2.68-4.03 2.46-3.4.36-.44zm16.58-15.27l-.9.52-1.5.95-1.52 1.07-1.6 1.2-1.65 1.37-1.75 1.6-2-2.24 1.8-1.62 1.74-1.45 1.7-1.3 1.63-1.13 1.6-1 .95-.57zm15.92-4.67l-1.5.1-1.43.15-1.4.2-1.25.24-.57-2.94 1.32-.26 1.52-.22 1.54-.16 1.58-.1z" stroke="#404040" stroke-width=".05" fill="#404040"/><path d="M854.93 241.6l-1.5.04-.07-3 1.57-.03z" fill="#404040"/><path d="M854.96 241.63l-1.56.03-.06-3.05 1.62-.02zm-1.57-2.97l.05 2.95 1.46-.02v-2.95z" stroke="#404040" stroke-width=".05" fill="#404040"/><path d="M720.15 479.04l-15-.4 12.38-8.5z" fill="#404040"/><path d="M722.17 480.6l-21.67-.6 17.88-12.26zm-12.36-3.35l8.33.23-1.46-4.93z" stroke="#404040" stroke-width=".05" fill="#404040"/><use xlink:href="#B" transform="matrix(1,0,0,1,743.5177210388224,295.95336064342956) translate(0.005000000000002558 17.777777777777775)"/><use xlink:href="#C" transform="matrix(1,0,0,1,743.5177210388224,295.95336064342956) translate(19.727222222222224 44.44444444444444)"/><path d="M568 680c17.67 0 32 17.9 32 40s-14.33 40-32 40h-96c-17.67 0-32-17.9-32-40s14.33-40 32-40z" stroke="#3a414a" fill="#dedeff"/><use xlink:href="#D" transform="matrix(1,0,0,1,445,685) translate(42.35067901234568 26.52777777777778)"/><use xlink:href="#E" transform="matrix(1,0,0,1,445,685) translate(19.572901234567887 53.19444444444445)"/><path d="M368 680c17.67 0 32 17.9 32 40s-14.33 40-32 40h-96c-17.67 0-32-17.9-32-40s14.33-40 32-40z" stroke="#3a414a" fill="#dedeff"/><use xlink:href="#F" transform="matrix(1,0,0,1,245,685) translate(51.60993827160494 26.52777777777778)"/><use xlink:href="#E" transform="matrix(1,0,0,1,245,685) translate(19.572901234567887 53.19444444444445)"/><path d="M968 680c17.67 0 32 17.9 32 40s-14.33 40-32 40h-96c-17.67 0-32-17.9-32-40s14.33-40 32-40z" stroke="#3a414a" fill="#dedeff"/><use xlink:href="#G" transform="matrix(1,0,0,1,845,685) translate(41.1161111111111 26.52777777777778)"/><use xlink:href="#E" transform="matrix(1,0,0,1,845,685) translate(19.572901234567887 53.19444444444445)"/><path d="M768 680c17.67 0 32 17.9 32 40s-14.33 40-32 40h-96c-17.67 0-32-17.9-32-40s14.33-40 32-40z" stroke="#3a414a" fill="#dedeff"/><use xlink:href="#H" transform="matrix(1,0,0,1,645,685) translate(4.202530864197536 26.52777777777778)"/><use xlink:href="#I" transform="matrix(1,0,0,1,645,685) translate(71.85685185185186 26.52777777777778)"/><use xlink:href="#E" transform="matrix(1,0,0,1,645,685) translate(19.572901234567887 53.19444444444445)"/><path d="M620.5 541l-.02.52-.07 1-.1 1-.14 1-.18.98-.23.98-.28 1-.32.98-.37 1-.43 1-.48 1.04-.55 1.05-.63 1.08-.7 1.1-.8 1.15-.9 1.2-1.03 1.23-1.17 1.3-1.35 1.38-1.54 1.44-1.78 1.55-2.1 1.65-2.46 1.8-2.94 1.94-3.55 2.15-4.36 2.4-5.45 2.7-7 3.12-9.34 3.7-13.13 4.54-20.5 6.14-49.08 12.35-83.82 20.4-20.45 6.14-13.1 4.53-9.28 3.67-6.98 3.1-5.42 2.68-4.32 2.37-3.52 2.13-2.9 1.93-2.43 1.77-2.05 1.63-1.76 1.52-1.5 1.42-1.33 1.34-1.14 1.26-1 1.2-.8 1.06-.8-.6.8-1.07 1.04-1.24 1.16-1.3 1.35-1.38 1.54-1.44 1.78-1.55 2.1-1.65 2.46-1.8 2.94-1.94 3.55-2.15 4.36-2.4 5.45-2.7 7-3.12 9.35-3.7 13.13-4.54 20.5-6.14 83.82-20.43 49.07-12.33 20.45-6.13 13.1-4.53 9.28-3.67 6.98-3.1 5.42-2.68 4.32-2.37 3.52-2.13 2.9-1.93 2.43-1.77 2.05-1.63 1.76-1.52 1.5-1.42 1.33-1.34 1.14-1.26 1-1.2.88-1.17.78-1.12.68-1.07.6-1.03.53-1.02.47-1 .4-.96.37-.97.3-.95.28-.95.22-.94.18-.95.14-.95.1-.95.06-.97v-.5z" stroke="#404040" stroke-width=".05" fill="#404040"/><path d="M620.5 541.02l-1-.02v-.5h1z" fill="#404040"/><path d="M620.5 541.05l-1.04-.02v-.55h1.07zm-.98-.52v.45l.95.02v-.48z" stroke="#404040" stroke-width=".05" fill="#404040"/><path d="M329.6 666.03l-9.07 11.94.32-15z" fill="#404040"/><path d="M330.42 665.78L320 679.5l.37-17.22zm-9.36 10.66l7.73-10.17-7.46-2.6zM620.5 541l-.06 2.47-.18 2.82-.28 2.7-.38 2.58-.48 2.5-.57 2.4-.65 2.37-.76 2.3-.84 2.3-.95 2.25-1.06 2.24-1.2 2.25-1.3 2.26-1.46 2.3-1.64 2.36-1.84 2.43-2.1 2.54-2.42 2.67-2.84 2.9-3.4 3.2-4.32 3.7-5.97 4.73-36.95 26.9-4.27 3.67-3.38 3.18-2.8 2.86-2.4 2.66-2.07 2.5-1.82 2.4-1.6 2.33-1.45 2.25-1.3 2.24-1.14 2.2-1.03 2.2-.94 2.23-.83 2.24-.74 2.27-.55 1.98-.95-.27.56-2 .76-2.3.84-2.3.95-2.25 1.06-2.24 1.2-2.25 1.3-2.26 1.46-2.3 1.64-2.36 1.84-2.43 2.1-2.54 2.42-2.67 2.84-2.9 3.4-3.2 4.33-3.72 36.97-26.9 5.95-4.7 4.27-3.67 3.38-3.18 2.8-2.86 2.4-2.66 2.07-2.5 1.82-2.4 1.6-2.33 1.45-2.25 1.3-2.24 1.14-2.2 1.03-2.2.94-2.23.83-2.24.74-2.27.64-2.32.56-2.38.47-2.45.4-2.54.26-2.65.18-2.77.05-2.44z" stroke="#404040" stroke-width=".05" fill="#404040"/><path d="M620.5 541.02l-1-.02v-.5h1z" fill="#404040"/><path d="M620.5 541.05l-1.04-.02v-.55h1.07zm-.98-.52v.45l.95.02v-.48z" stroke="#404040" stroke-width=".05" fill="#404040"/><path d="M526.57 664.3l-6.37 13.6-2.83-14.74z" fill="#404040"/><path d="M527.32 663.9L520 679.5l-3.25-16.92zm-6.92 12.4l5.43-11.57-7.84-1z" stroke="#404040" stroke-width=".05" fill="#404040"/><g><use xlink:href="#J" transform="matrix(1,0,0,1,591.5192278208591,583.4786644000305) translate(0 14.222222222222223)"/></g><path d="M620 541l.06 2.45.18 2.8.28 2.68.38 2.56.47 2.47.56 2.4.65 2.34.75 2.3.84 2.26.94 2.23 1.06 2.22 1.17 2.23 1.3 2.25 1.45 2.3 1.62 2.33 1.84 2.4 2.08 2.53 2.4 2.67 2.83 2.88 3.4 3.2 4.3 3.7 5.95 4.7 36.96 26.9 4.3 3.7 3.4 3.2 2.8 2.87 2.42 2.67 2.08 2.52 1.84 2.4 1.62 2.35 1.45 2.3 1.3 2.25 1.17 2.23 1.05 2.23.93 2.24.84 2.26.75 2.3.55 2" stroke="#404040" stroke-linejoin="round" fill="none"/><path d="M620.5 541l-1 .02v-.52h1z" stroke="#404040" stroke-width=".05" fill="#404040"/><path d="M719.8 677.9l-6.37-13.6 9.2-1.14z" stroke="#404040" fill="#404040"/><path d="M620 541l.02.5.06 1 .1.97.15.96.18.97.24.96.27.96.32.97.37.97.4 1 .48 1 .54 1.04.6 1.07.7 1.1.8 1.12.88 1.16 1 1.22 1.17 1.28 1.33 1.36 1.52 1.43 1.78 1.53 2.07 1.64 2.45 1.78 2.93 1.94 3.53 2.14 4.34 2.38 5.44 2.7 7 3.1 9.3 3.68 13.12 4.54 20.47 6.14 49.08 12.34 83.82 20.42 20.47 6.14 13.1 4.54 9.33 3.68 7 3.1 5.43 2.7 4.34 2.38 3.53 2.14 2.93 1.94 2.45 1.77 2.07 1.65 1.78 1.53 1.52 1.43 1.33 1.35 1.16 1.3 1 1.2.8 1.06" stroke="#404040" stroke-linejoin="round" fill="none"/><path d="M620.5 541l-1 .02v-.52h1z" stroke="#404040" stroke-width=".05" fill="#404040"/><path d="M919.47 677.97l-9.08-11.94 8.75-3.05z" stroke="#404040" fill="#404040"/><path d="M460 586a6 6 0 0 1 6-6h308a6 6 0 0 1 6 6v28a6 6 0 0 1-6 6H466a6 6 0 0 1-6-6z" fill="#cfe4ff"/><path d="M463.7 580.47l.45-.18.9-.23.95-.07h1.97m3.95 0h3.95m3.95 0h3.95m3.95 0h3.95m3.94 0h3.96m3.95 0h3.96m3.95 0h3.96m3.95 0h3.96m3.95 0h3.95m3.95 0h3.95m3.95 0h3.95m3.95 0h3.95m3.94 0h3.94m3.95 0h3.94m3.95 0h3.94m3.95 0h3.94m3.94 0h3.95m3.95 0h3.95m3.95 0h3.95m3.95 0h3.95m3.94 0h3.95m3.95 0h3.95m3.95 0h3.95m3.95 0h3.95m3.94 0h3.95m3.96 0h3.95m3.96 0h3.95m3.96 0h3.95m3.95 0h3.95m3.95 0H697m3.95 0h3.95m3.95 0h3.94m3.94 0h3.95m3.94 0h3.95m3.94 0h3.95m3.94 0h3.94m3.95 0h3.95m3.95 0h3.95m3.95 0h3.95m3.95 0H774l.94.07.9.22.45.17m3.23 3.24l.18.45.23.9.07.95v1.75m0 3.5v3.5m0 3.5v3.5m0 3.5v3.5m0 3.5V614l-.07.94-.22.9-.17.45m-3.24 3.23l-.45.18-.9.23-.95.07h-1.97m-3.95 0h-3.95m-3.95 0h-3.95m-3.95 0h-3.95m-3.95 0h-3.94m-3.95 0h-3.96m-3.95 0h-3.96m-3.95 0h-3.96m-3.95 0h-3.95m-3.95 0h-3.95m-3.95 0h-3.95m-3.95 0h-3.95m-3.94 0h-3.94m-3.95 0h-3.94m-3.95 0h-3.94m-3.95 0h-3.94m-3.94 0h-3.95m-3.95 0h-3.95m-3.95 0h-3.95m-3.95 0h-3.95m-3.94 0h-3.95m-3.95 0h-3.95m-3.95 0h-3.95m-3.95 0h-3.95m-3.94 0h-3.95m-3.96 0h-3.95m-3.96 0h-3.95m-3.96 0h-3.95m-3.95 0h-3.95m-3.95 0H543m-3.95 0h-3.95m-3.95 0h-3.94m-3.94 0h-3.95m-3.94 0h-3.95m-3.94 0h-3.95m-3.94 0h-3.94m-3.95 0h-3.95m-3.95 0h-3.95m-3.95 0h-3.95m-3.95 0H466l-.94-.07-.9-.22-.45-.17m-3.23-3.24l-.18-.45-.23-.9-.07-.95v-1.75m0-3.5v-3.5m0-3.5v-3.5m0-3.5v-3.5m0-3.5V586l.07-.94.22-.9.17-.45" stroke="#3a414a" fill="none"/><g><use xlink:href="#K" transform="matrix(1,0,0,1,465,585) translate(20.617283950617292 19.65277777777778)"/><use xlink:href="#L" transform="matrix(1,0,0,1,465,585) translate(71.17283950617283 19.65277777777778)"/><use xlink:href="#M" transform="matrix(1,0,0,1,465,585) translate(95.8641975308642 19.65277777777778)"/><use xlink:href="#N" transform="matrix(1,0,0,1,465,585) translate(151.2962962962963 19.65277777777778)"/><use xlink:href="#O" transform="matrix(1,0,0,1,465,585) translate(180.92592592592592 19.65277777777778)"/></g><path d="M936.93 638.88h-3v-143.8h3zm0-175.8h-3V300.16h3z" stroke="#404040" stroke-width=".05" fill="#404040"/><path d="M936.93 300.2h-3v-.8l3-1.47z" fill="#404040"/><path d="M936.96 300.22h-3.05v-.85l3.06-1.48zm-3-.82v.77h2.95v-2.2z" stroke="#404040" stroke-width=".05" fill="#404040"/><path d="M935.43 654.64l-4.63-14.26h9.27z" fill="#404040"/><path d="M935.43 659.5l-6.7-20.62h13.4zm-2.57-17.62l2.57 7.9 2.57-7.9z" stroke="#404040" stroke-width=".05" fill="#404040"/><g><use xlink:href="#P" transform="matrix(1,0,0,1,911.0256637252817,463.07991438491047) translate(0 21.333333333333332)"/></g><path d="M812.52 638.83l-3 .14-.28-6.14 3-.14zm-.87-18.43l-3 .14-.57-12.28 3-.14zm-1.16-24.57l-3 .14-.6-12.28 3-.16zm-1.17-24.57l-3 .14-.58-12.3 3-.13zm-1.17-24.58l-3 .15-.57-12.3 2.98-.13zM807 522.1l-3 .15-.58-12.28 3-.14zm-1.16-24.56l-3 .14-.58-12.3 3-.13zm-1.16-24.57l-3 .14-.58-12.28 3-.14zm-1-24.5h-3l-.02-12.3h3zm-.04-24.6h-3l-.03-12.3h3zm.34-36.84l-.4 9.8v2.43h-3v-2.5l.4-9.85zm1-24.58l-.5 12.3-3-.13.5-12.3zm.97-12.2l-3-.25.07-.7h3zm9.3-60.45l-1.57 6.15h-3.07l.14-.63 1.6-6.26zm8.1-22.85l-.24.5-1.68 3.8-1.78 4.52-.83 2.4-2.83-1 .86-2.45 1.82-4.62 1.74-3.9.27-.58zm14.1-19.14l-1.08.9-1.13 1.02-1.16 1.14-1.2 1.27-1.22 1.42-1.28 1.6-1 1.4-2.42-1.78 1.03-1.42 1.35-1.7 1.3-1.53 1.3-1.36 1.23-1.22 1.23-1.1 1.14-.94zm16.07-6.16l-1.04.07-1.16.13-1.14.17-1.1.2-1.1.26-.2.07-.82-2.9.3-.07 1.2-.3 1.22-.22 1.26-.2 1.3-.12 1.1-.07z" stroke="#404040" stroke-width=".05" fill="#404040"/><path d="M854.93 241.6l-1.5.04-.07-3 1.57-.03z" fill="#404040"/><path d="M854.96 241.63l-1.56.03-.06-3.05 1.62-.02zm-1.57-2.97l.05 2.95 1.46-.02v-2.95z" stroke="#404040" stroke-width=".05" fill="#404040"/><path d="M811.77 654.65l-5.3-14.03 9.26-.44z" fill="#404040"/><path d="M812 659.5l-7.67-20.28 13.4-.63zm-3.4-17.48l2.94 7.78 2.2-8.02z" stroke="#404040" stroke-width=".05" fill="#404040"/><defs><path fill="#3a414a" d="M67-125c0 53 21 87 73 88 37 1 54-22 65-47l45 17C233-25 199 4 140 4 58 4 20-42 15-125 8-235 124-281 211-232c18 10 29 29 36 50l-46 12c-8-25-30-41-62-41-52 0-71 34-72 86" id="Q"/><path fill="#3a414a" d="M100-194c63 0 86 42 84 106H49c0 40 14 67 53 68 26 1 43-12 49-29l28 8c-11 28-37 45-77 45C44 4 14-33 15-96c1-61 26-98 85-98zm52 81c6-60-76-77-97-28-3 7-6 17-6 28h103" id="R"/><path fill="#3a414a" d="M114-163C36-179 61-72 57 0H25l-1-190h30c1 12-1 29 2 39 6-27 23-49 58-41v29" id="S"/><path fill="#3a414a" d="M59-47c-2 24 18 29 38 22v24C64 9 27 4 27-40v-127H5v-23h24l9-43h21v43h35v23H59v120" id="T"/><path fill="#3a414a" d="M24-231v-30h32v30H24zM24 0v-190h32V0H24" id="U"/><path fill="#3a414a" d="M101-234c-31-9-42 10-38 44h38v23H63V0H32v-167H5v-23h27c-7-52 17-82 69-68v24" id="V"/><path fill="#3a414a" d="M96-169c-40 0-48 33-48 73s9 75 48 75c24 0 41-14 43-38l32 2c-6 37-31 61-74 61-59 0-76-41-82-99-10-93 101-131 147-64 4 7 5 14 7 22l-32 3c-4-21-16-35-41-35" id="W"/><path fill="#3a414a" d="M141-36C126-15 110 5 73 4 37 3 15-17 15-53c-1-64 63-63 125-63 3-35-9-54-41-54-24 1-41 7-42 31l-33-3c5-37 33-52 76-52 45 0 72 20 72 64v82c-1 20 7 32 28 27v20c-31 9-61-2-59-35zM48-53c0 20 12 33 32 33 41-3 63-29 60-74-43 2-92-5-92 41" id="X"/><g id="a"><use transform="matrix(0.07407407407407407,0,0,0.07407407407407407,0,0)" xlink:href="#Q"/><use transform="matrix(0.07407407407407407,0,0,0.07407407407407407,19.185185185185183,0)" xlink:href="#R"/><use transform="matrix(0.07407407407407407,0,0,0.07407407407407407,34,0)" xlink:href="#S"/><use transform="matrix(0.07407407407407407,0,0,0.07407407407407407,42.814814814814824,0)" xlink:href="#T"/><use transform="matrix(0.07407407407407407,0,0,0.07407407407407407,50.22222222222222,0)" xlink:href="#U"/><use transform="matrix(0.07407407407407407,0,0,0.07407407407407407,56.074074074074076,0)" xlink:href="#V"/><use transform="matrix(0.07407407407407407,0,0,0.07407407407407407,63.48148148148148,0)" xlink:href="#U"/><use transform="matrix(0.07407407407407407,0,0,0.07407407407407407,69.33333333333333,0)" xlink:href="#W"/><use transform="matrix(0.07407407407407407,0,0,0.07407407407407407,82.66666666666666,0)" xlink:href="#X"/><use transform="matrix(0.07407407407407407,0,0,0.07407407407407407,97.48148148148145,0)" xlink:href="#T"/><use transform="matrix(0.07407407407407407,0,0,0.07407407407407407,104.88888888888887,0)" xlink:href="#R"/></g><path fill="#3a414a" d="M199 0l-22-63H83L61 0H9l90-248h61L250 0h-51zm-33-102l-36-108c-10 38-24 72-36 108h72" id="Y"/><path fill="#3a414a" d="M84 4C-5 8 30-112 23-190h32v120c0 31 7 50 39 49 72-2 45-101 50-169h31l1 190h-30c-1-10 1-25-2-33-11 22-28 36-60 37" id="Z"/><path fill="#3a414a" d="M106-169C34-169 62-67 57 0H25v-261h32l-1 103c12-21 28-36 61-36 89 0 53 116 60 194h-32v-121c2-32-8-49-39-48" id="aa"/><path fill="#3a414a" d="M100-194c62-1 85 37 85 99 1 63-27 99-86 99S16-35 15-95c0-66 28-99 85-99zM99-20c44 1 53-31 53-75 0-43-8-75-51-75s-53 32-53 75 10 74 51 75" id="ab"/><path fill="#3a414a" d="M179-190L93 31C79 59 56 82 12 73V49c39 6 53-20 64-50L1-190h34L92-34l54-156h33" id="ac"/><g id="b"><use transform="matrix(0.07407407407407407,0,0,0.07407407407407407,0,0)" xlink:href="#Y"/><use transform="matrix(0.07407407407407407,0,0,0.07407407407407407,19.185185185185183,0)" xlink:href="#Z"/><use transform="matrix(0.07407407407407407,0,0,0.07407407407407407,34,0)" xlink:href="#T"/><use transform="matrix(0.07407407407407407,0,0,0.07407407407407407,41.407407407407405,0)" xlink:href="#aa"/><use transform="matrix(0.07407407407407407,0,0,0.07407407407407407,56.22222222222221,0)" xlink:href="#ab"/><use transform="matrix(0.07407407407407407,0,0,0.07407407407407407,71.03703703703702,0)" xlink:href="#S"/><use transform="matrix(0.07407407407407407,0,0,0.07407407407407407,79.85185185185183,0)" xlink:href="#U"/><use transform="matrix(0.07407407407407407,0,0,0.07407407407407407,85.70370370370368,0)" xlink:href="#T"/><use transform="matrix(0.07407407407407407,0,0,0.07407407407407407,93.11111111111109,0)" xlink:href="#ac"/></g><path fill="#3a414a" d="M87 75C49 33 22-17 22-94c0-76 28-126 65-167h31c-38 41-64 92-64 168S80 34 118 75H87" id="ad"/><path fill="#3a414a" d="M30-147c31-64 166-65 159 27C183-49 158 1 86 4 9 8 1-88 30-147zM88-20c53 0 68-48 68-100 0-31-11-51-44-50-52 1-68 46-68 97 0 32 13 53 44 53" id="ae"/><path fill="#3a414a" d="M76-167L44 0H12l33-167H18l4-23h27c3-47 25-81 82-69l-4 24c-35-8-44 15-46 45h37l-5 23H76" id="af"/><path fill="#3a414a" d="M6 0l50-261h32L37 0H6" id="ag"/><path fill="#3a414a" d="M50-231l6-30h32l-6 30H50zM6 0l37-190h31L37 0H6" id="ah"/><path fill="#3a414a" d="M67-158c22-48 132-52 116 29L158 0h-32l25-140c3-38-53-32-70-12C52-117 51-52 38 0H6l36-190h30" id="ai"/><path fill="#3a414a" d="M111-194c62-3 86 47 72 106H45c-7 38 6 69 45 68 27-1 43-14 53-32l24 11C152-15 129 4 87 4 38 3 12-23 12-71c0-70 32-119 99-123zm44 81c14-66-71-72-95-28-4 8-8 17-11 28h106" id="aj"/><path fill="#3a414a" d="M33-261c38 41 65 92 65 168S71 34 33 75H2C39 34 66-17 66-93S39-220 2-261h31" id="ak"/><g id="c"><use transform="matrix(0.07407407407407407,0,0,0.07407407407407407,0,0)" xlink:href="#ad"/><use transform="matrix(0.07407407407407407,0,0,0.07407407407407407,8.814814814814815,0)" xlink:href="#ae"/><use transform="matrix(0.07407407407407407,0,0,0.07407407407407407,23.629629629629623,0)" xlink:href="#af"/><use transform="matrix(0.07407407407407407,0,0,0.07407407407407407,31.03703703703703,0)" xlink:href="#af"/><use transform="matrix(0.07407407407407407,0,0,0.07407407407407407,38.444444444444436,0)" xlink:href="#ag"/><use transform="matrix(0.07407407407407407,0,0,0.07407407407407407,44.29629629629629,0)" xlink:href="#ah"/><use transform="matrix(0.07407407407407407,0,0,0.07407407407407407,50.14814814814814,0)" xlink:href="#ai"/><use transform="matrix(0.07407407407407407,0,0,0.07407407407407407,64.96296296296295,0)" xlink:href="#aj"/><use transform="matrix(0.07407407407407407,0,0,0.07407407407407407,79.77777777777776,0)" xlink:href="#ak"/></g><path fill="#3a414a" d="M30-248c118-7 216 8 213 122C240-48 200 0 122 0H30v-248zM63-27c89 8 146-16 146-99s-60-101-146-95v194" id="al"/><path fill="#3a414a" d="M108 0H70L1-190h34L89-25l56-165h34" id="am"/><path fill="#3a414a" d="M135-143c-3-34-86-38-87 0 15 53 115 12 119 90S17 21 10-45l28-5c4 36 97 45 98 0-10-56-113-15-118-90-4-57 82-63 122-42 12 7 21 19 24 35" id="an"/><path fill="#3a414a" d="M68-38c1 34 0 65-14 84H32c9-13 17-26 17-46H33v-38h35" id="ao"/><g id="d"><use transform="matrix(0.06172839506172839,0,0,0.06172839506172839,0,0)" xlink:href="#al"/><use transform="matrix(0.06172839506172839,0,0,0.06172839506172839,15.987654320987653,0)" xlink:href="#R"/><use transform="matrix(0.06172839506172839,0,0,0.06172839506172839,28.333333333333332,0)" xlink:href="#am"/><use transform="matrix(0.06172839506172839,0,0,0.06172839506172839,39.44444444444444,0)" xlink:href="#U"/><use transform="matrix(0.06172839506172839,0,0,0.06172839506172839,44.32098765432099,0)" xlink:href="#W"/><use transform="matrix(0.06172839506172839,0,0,0.06172839506172839,55.4320987654321,0)" xlink:href="#R"/><use transform="matrix(0.06172839506172839,0,0,0.06172839506172839,67.77777777777779,0)" xlink:href="#an"/><use transform="matrix(0.06172839506172839,0,0,0.06172839506172839,78.8888888888889,0)" xlink:href="#ao"/></g><path fill="#3a414a" d="M185-189c-5-48-123-54-124 2 14 75 158 14 163 119 3 78-121 87-175 55-17-10-28-26-33-46l33-7c5 56 141 63 141-1 0-78-155-14-162-118-5-82 145-84 179-34 5 7 8 16 11 25" id="ap"/><g id="e"><use transform="matrix(0.06172839506172839,0,0,0.06172839506172839,0,0)" xlink:href="#ap"/><use transform="matrix(0.06172839506172839,0,0,0.06172839506172839,14.814814814814813,0)" xlink:href="#R"/><use transform="matrix(0.06172839506172839,0,0,0.06172839506172839,27.160493827160494,0)" xlink:href="#S"/><use transform="matrix(0.06172839506172839,0,0,0.06172839506172839,34.50617283950617,0)" xlink:href="#am"/><use transform="matrix(0.06172839506172839,0,0,0.06172839506172839,45.61728395061728,0)" xlink:href="#R"/><use transform="matrix(0.06172839506172839,0,0,0.06172839506172839,57.962962962962955,0)" xlink:href="#S"/><use transform="matrix(0.06172839506172839,0,0,0.06172839506172839,65.30864197530863,0)" xlink:href="#an"/><use transform="matrix(0.06172839506172839,0,0,0.06172839506172839,76.41975308641975,0)" xlink:href="#ao"/></g><path fill="#3a414a" d="M232-93c-1 65-40 97-104 97C67 4 28-28 28-90v-158h33c8 89-33 224 67 224 102 0 64-133 71-224h33v155" id="aq"/><g id="f"><use transform="matrix(0.06172839506172839,0,0,0.06172839506172839,0,0)" xlink:href="#aq"/><use transform="matrix(0.06172839506172839,0,0,0.06172839506172839,15.987654320987653,0)" xlink:href="#an"/><use transform="matrix(0.06172839506172839,0,0,0.06172839506172839,27.098765432098766,0)" xlink:href="#R"/><use transform="matrix(0.06172839506172839,0,0,0.06172839506172839,39.44444444444444,0)" xlink:href="#S"/><use transform="matrix(0.06172839506172839,0,0,0.06172839506172839,46.79012345679012,0)" xlink:href="#an"/></g><path fill="#979ea8" d="M136-208V0H84v-208H4v-40h212v40h-80" id="ar"/><path fill="#979ea8" d="M135-150c-39-12-60 13-60 57V0H25l-1-190h47c2 13-1 29 3 40 6-28 27-53 61-41v41" id="as"/><path fill="#979ea8" d="M85 4C-2 5 27-109 22-190h50c7 57-23 150 33 157 60-5 35-97 40-157h50l1 190h-47c-2-12 1-28-3-38-12 25-28 42-61 42" id="at"/><path fill="#979ea8" d="M137-138c1-29-70-34-71-4 15 46 118 7 119 86 1 83-164 76-172 9l43-7c4 19 20 25 44 25 33 8 57-30 24-41C81-84 22-81 20-136c-2-80 154-74 161-7" id="au"/><path fill="#979ea8" d="M115-3C79 11 28 4 28-45v-112H4v-33h27l15-45h31v45h36v33H77v99c-1 23 16 31 38 25v30" id="av"/><g id="g"><use transform="matrix(0.07407407407407406,0,0,0.07407407407407406,0,0)" xlink:href="#ar"/><use transform="matrix(0.07407407407407406,0,0,0.07407407407407406,14.740740740740737,0)" xlink:href="#as"/><use transform="matrix(0.07407407407407406,0,0,0.07407407407407406,25.11111111111111,0)" xlink:href="#at"/><use transform="matrix(0.07407407407407406,0,0,0.07407407407407406,41.33333333333333,0)" xlink:href="#au"/><use transform="matrix(0.07407407407407406,0,0,0.07407407407407406,56.14814814814813,0)" xlink:href="#av"/></g><path fill="#3a414a" d="M169-182c-1-43-94-46-97-3 18 66 151 10 154 114 3 95-165 93-204 36-6-8-10-19-12-30l50-8c3 46 112 56 116 5-17-69-150-10-154-114-4-87 153-88 188-35 5 8 8 18 10 28" id="aw"/><path fill="#3a414a" d="M85 4C-2 5 27-109 22-190h50c7 57-23 150 33 157 60-5 35-97 40-157h50l1 190h-47c-2-12 1-28-3-38-12 25-28 42-61 42" id="ax"/><path fill="#3a414a" d="M135-194c52 0 70 43 70 98 0 56-19 99-73 100-30 1-46-15-58-35L72 0H24l1-261h50v104c11-23 29-37 60-37zM114-30c31 0 40-27 40-66 0-37-7-63-39-63s-41 28-41 65c0 36 8 64 40 64" id="ay"/><path fill="#3a414a" d="M85-194c31 0 48 13 60 33l-1-100h32l1 261h-30c-2-10 0-23-3-31C134-8 116 4 85 4 32 4 16-35 15-94c0-66 23-100 70-100zm9 24c-40 0-46 34-46 75 0 40 6 74 45 74 42 0 51-32 51-76 0-42-9-74-50-73" id="az"/><path fill="#3a414a" d="M117-194c89-4 53 116 60 194h-32v-121c0-31-8-49-39-48C34-167 62-67 57 0H25l-1-190h30c1 10-1 24 2 32 11-22 29-35 61-36" id="aA"/><g id="h"><use transform="matrix(0.06172839506172839,0,0,0.06172839506172839,0,0)" xlink:href="#aw"/><use transform="matrix(0.06172839506172839,0,0,0.06172839506172839,14.814814814814813,0)" xlink:href="#ax"/><use transform="matrix(0.06172839506172839,0,0,0.06172839506172839,28.33333333333333,0)" xlink:href="#ay"/><use transform="matrix(0.06172839506172839,0,0,0.06172839506172839,41.85185185185185,0)" xlink:href="#ab"/><use transform="matrix(0.06172839506172839,0,0,0.06172839506172839,54.197530864197525,0)" xlink:href="#S"/><use transform="matrix(0.06172839506172839,0,0,0.06172839506172839,61.5432098765432,0)" xlink:href="#az"/><use transform="matrix(0.06172839506172839,0,0,0.06172839506172839,73.88888888888889,0)" xlink:href="#U"/><use transform="matrix(0.06172839506172839,0,0,0.06172839506172839,78.76543209876543,0)" xlink:href="#aA"/><use transform="matrix(0.06172839506172839,0,0,0.06172839506172839,91.11111111111111,0)" xlink:href="#X"/><use transform="matrix(0.06172839506172839,0,0,0.06172839506172839,103.4567901234568,0)" xlink:href="#T"/><use transform="matrix(0.06172839506172839,0,0,0.06172839506172839,109.62962962962963,0)" xlink:href="#R"/></g><g id="i"><use transform="matrix(0.06172839506172839,0,0,0.06172839506172839,0,0)" xlink:href="#Q"/><use transform="matrix(0.06172839506172839,0,0,0.06172839506172839,15.987654320987653,0)" xlink:href="#R"/><use transform="matrix(0.06172839506172839,0,0,0.06172839506172839,28.333333333333332,0)" xlink:href="#S"/><use transform="matrix(0.06172839506172839,0,0,0.06172839506172839,35.67901234567901,0)" xlink:href="#T"/><use transform="matrix(0.06172839506172839,0,0,0.06172839506172839,41.851851851851855,0)" xlink:href="#U"/><use transform="matrix(0.06172839506172839,0,0,0.06172839506172839,46.7283950617284,0)" xlink:href="#V"/><use transform="matrix(0.06172839506172839,0,0,0.06172839506172839,52.90123456790124,0)" xlink:href="#U"/><use transform="matrix(0.06172839506172839,0,0,0.06172839506172839,57.777777777777786,0)" xlink:href="#W"/><use transform="matrix(0.06172839506172839,0,0,0.06172839506172839,68.8888888888889,0)" xlink:href="#X"/><use transform="matrix(0.06172839506172839,0,0,0.06172839506172839,81.23456790123458,0)" xlink:href="#T"/><use transform="matrix(0.06172839506172839,0,0,0.06172839506172839,87.40740740740742,0)" xlink:href="#R"/></g><g id="j"><use transform="matrix(0.06172839506172839,0,0,0.06172839506172839,0,0)" xlink:href="#Y"/><use transform="matrix(0.06172839506172839,0,0,0.06172839506172839,15.987654320987653,0)" xlink:href="#Z"/><use transform="matrix(0.06172839506172839,0,0,0.06172839506172839,28.333333333333332,0)" xlink:href="#T"/><use transform="matrix(0.06172839506172839,0,0,0.06172839506172839,34.50617283950617,0)" xlink:href="#aa"/><use transform="matrix(0.06172839506172839,0,0,0.06172839506172839,46.85185185185185,0)" xlink:href="#ab"/><use transform="matrix(0.06172839506172839,0,0,0.06172839506172839,59.197530864197525,0)" xlink:href="#S"/><use transform="matrix(0.06172839506172839,0,0,0.06172839506172839,66.5432098765432,0)" xlink:href="#U"/><use transform="matrix(0.06172839506172839,0,0,0.06172839506172839,71.41975308641975,0)" xlink:href="#T"/><use transform="matrix(0.06172839506172839,0,0,0.06172839506172839,77.59259259259258,0)" xlink:href="#ac"/></g><path fill="#333" d="M169-182c-1-43-94-46-97-3 18 66 151 10 154 114 3 95-165 93-204 36-6-8-10-19-12-30l50-8c3 46 112 56 116 5-17-69-150-10-154-114-4-87 153-88 188-35 5 8 8 18 10 28" id="aB"/><path fill="#333" d="M25-224v-37h50v37H25zM25 0v-190h50V0H25" id="aC"/><path fill="#333" d="M195-6C206 82 75 100 31 46c-4-6-6-13-8-21l49-6c3 16 16 24 34 25 40 0 42-37 40-79-11 22-30 35-61 35-53 0-70-43-70-97 0-56 18-96 73-97 30 0 46 14 59 34l2-30h47zm-90-29c32 0 41-27 41-63 0-35-9-62-40-62-32 0-39 29-40 63 0 36 9 62 39 62" id="aD"/><path fill="#333" d="M135-194c87-1 58 113 63 194h-50c-7-57 23-157-34-157-59 0-34 97-39 157H25l-1-190h47c2 12-1 28 3 38 12-26 28-41 61-42" id="aE"/><g id="k"><use transform="matrix(0.04938271604938272,0,0,0.04938271604938272,0,0)" xlink:href="#aB"/><use transform="matrix(0.04938271604938272,0,0,0.04938271604938272,11.851851851851853,0)" xlink:href="#aC"/><use transform="matrix(0.04938271604938272,0,0,0.04938271604938272,16.790123456790127,0)" xlink:href="#aD"/><use transform="matrix(0.04938271604938272,0,0,0.04938271604938272,27.604938271604947,0)" xlink:href="#aE"/><use transform="matrix(0.04938271604938272,0,0,0.04938271604938272,38.41975308641976,0)" xlink:href="#aC"/><use transform="matrix(0.04938271604938272,0,0,0.04938271604938272,43.35802469135803,0)" xlink:href="#aE"/><use transform="matrix(0.04938271604938272,0,0,0.04938271604938272,54.17283950617284,0)" xlink:href="#aD"/></g><path fill="#333" d="M199 0l-22-63H83L61 0H9l90-248h61L250 0h-51zm-33-102l-36-108c-10 38-24 72-36 108h72" id="aF"/><path fill="#333" d="M25 0v-261h50V0H25" id="aG"/><path fill="#333" d="M110-194c64 0 96 36 96 99 0 64-35 99-97 99-61 0-95-36-95-99 0-62 34-99 96-99zm-1 164c35 0 45-28 45-65 0-40-10-65-43-65-34 0-45 26-45 65 0 36 10 65 43 65" id="aH"/><path fill="#333" d="M231 0h-52l-39-155L100 0H48L-1-190h46L77-45c9-52 24-97 36-145h53l37 145 32-145h46" id="aI"/><g id="l"><use transform="matrix(0.04938271604938272,0,0,0.04938271604938272,0,0)" xlink:href="#aF"/><use transform="matrix(0.04938271604938272,0,0,0.04938271604938272,12.790123456790125,0)" xlink:href="#aG"/><use transform="matrix(0.04938271604938272,0,0,0.04938271604938272,17.7283950617284,0)" xlink:href="#aG"/><use transform="matrix(0.04938271604938272,0,0,0.04938271604938272,22.66666666666667,0)" xlink:href="#aH"/><use transform="matrix(0.04938271604938272,0,0,0.04938271604938272,33.48148148148149,0)" xlink:href="#aI"/><use transform="matrix(0.04938271604938272,0,0,0.04938271604938272,47.308641975308646,0)" xlink:href="#aC"/><use transform="matrix(0.04938271604938272,0,0,0.04938271604938272,52.24691358024692,0)" xlink:href="#aE"/><use transform="matrix(0.04938271604938272,0,0,0.04938271604938272,63.061728395061735,0)" xlink:href="#aD"/></g><path fill="#333" d="M115-3C79 11 28 4 28-45v-112H4v-33h27l15-45h31v45h36v33H77v99c-1 23 16 31 38 25v30" id="aJ"/><g id="m"><use transform="matrix(0.04938271604938272,0,0,0.04938271604938272,0,0)" xlink:href="#aJ"/><use transform="matrix(0.04938271604938272,0,0,0.04938271604938272,5.8765432098765435,0)" xlink:href="#aH"/></g><path fill="#333" d="M137-138c1-29-70-34-71-4 15 46 118 7 119 86 1 83-164 76-172 9l43-7c4 19 20 25 44 25 33 8 57-30 24-41C81-84 22-81 20-136c-2-80 154-74 161-7" id="aK"/><g id="n"><use transform="matrix(0.04938271604938272,0,0,0.04938271604938272,0,0)" xlink:href="#aK"/><use transform="matrix(0.04938271604938272,0,0,0.04938271604938272,9.876543209876544,0)" xlink:href="#aC"/><use transform="matrix(0.04938271604938272,0,0,0.04938271604938272,14.814814814814817,0)" xlink:href="#aD"/><use transform="matrix(0.04938271604938272,0,0,0.04938271604938272,25.629629629629633,0)" xlink:href="#aE"/></g><g id="o"><use transform="matrix(0.06172839506172839,0,0,0.06172839506172839,0,0)" xlink:href="#Q"/><use transform="matrix(0.06172839506172839,0,0,0.06172839506172839,15.987654320987653,0)" xlink:href="#R"/><use transform="matrix(0.06172839506172839,0,0,0.06172839506172839,28.333333333333332,0)" xlink:href="#S"/><use transform="matrix(0.06172839506172839,0,0,0.06172839506172839,35.67901234567901,0)" xlink:href="#T"/><use transform="matrix(0.06172839506172839,0,0,0.06172839506172839,41.851851851851855,0)" xlink:href="#U"/><use transform="matrix(0.06172839506172839,0,0,0.06172839506172839,46.7283950617284,0)" xlink:href="#V"/><use transform="matrix(0.06172839506172839,0,0,0.06172839506172839,52.90123456790124,0)" xlink:href="#U"/><use transform="matrix(0.06172839506172839,0,0,0.06172839506172839,57.777777777777786,0)" xlink:href="#W"/><use transform="matrix(0.06172839506172839,0,0,0.06172839506172839,68.8888888888889,0)" xlink:href="#X"/><use transform="matrix(0.06172839506172839,0,0,0.06172839506172839,81.23456790123458,0)" xlink:href="#T"/><use transform="matrix(0.06172839506172839,0,0,0.06172839506172839,87.40740740740742,0)" xlink:href="#R"/></g><path fill="#3a414a" d="M240-174c0 40-23 61-54 70L253 0h-59l-57-94H76V0H24v-248c93 4 217-23 216 74zM76-134c48-2 112 12 112-38 0-48-66-32-112-35v73" id="aL"/><g id="p"><use transform="matrix(0.06172839506172839,0,0,0.06172839506172839,0,0)" xlink:href="#aL"/><use transform="matrix(0.06172839506172839,0,0,0.06172839506172839,15.987654320987653,0)" xlink:href="#R"/><use transform="matrix(0.06172839506172839,0,0,0.06172839506172839,28.333333333333332,0)" xlink:href="#am"/><use transform="matrix(0.06172839506172839,0,0,0.06172839506172839,39.44444444444444,0)" xlink:href="#ab"/><use transform="matrix(0.06172839506172839,0,0,0.06172839506172839,51.79012345679012,0)" xlink:href="#W"/><use transform="matrix(0.06172839506172839,0,0,0.06172839506172839,62.90123456790123,0)" xlink:href="#X"/><use transform="matrix(0.06172839506172839,0,0,0.06172839506172839,75.24691358024691,0)" xlink:href="#T"/><use transform="matrix(0.06172839506172839,0,0,0.06172839506172839,81.41975308641975,0)" xlink:href="#U"/><use transform="matrix(0.06172839506172839,0,0,0.06172839506172839,86.29629629629629,0)" xlink:href="#ab"/><use transform="matrix(0.06172839506172839,0,0,0.06172839506172839,98.64197530864197,0)" xlink:href="#aA"/></g><path fill="#3a414a" d="M24 0v-248h52v208h133V0H24" id="aM"/><g id="q"><use transform="matrix(0.06172839506172839,0,0,0.06172839506172839,0,0)" xlink:href="#aM"/><use transform="matrix(0.06172839506172839,0,0,0.06172839506172839,13.518518518518517,0)" xlink:href="#U"/><use transform="matrix(0.06172839506172839,0,0,0.06172839506172839,18.39506172839506,0)" xlink:href="#an"/><use transform="matrix(0.06172839506172839,0,0,0.06172839506172839,29.50617283950617,0)" xlink:href="#T"/></g><path fill="#979ea8" d="M240-174c0 40-23 61-54 70L253 0h-59l-57-94H76V0H24v-248c93 4 217-23 216 74zM76-134c48-2 112 12 112-38 0-48-66-32-112-35v73" id="aN"/><path fill="#979ea8" d="M185-48c-13 30-37 53-82 52C43 2 14-33 14-96s30-98 90-98c62 0 83 45 84 108H66c0 31 8 55 39 56 18 0 30-7 34-22zm-45-69c5-46-57-63-70-21-2 6-4 13-4 21h74" id="aO"/><path fill="#979ea8" d="M133-34C117-15 103 5 69 4 32 3 11-16 11-54c-1-60 55-63 116-61 1-26-3-47-28-47-18 1-26 9-28 27l-52-2c7-38 36-58 82-57s74 22 75 68l1 82c-1 14 12 18 25 15v27c-30 8-71 5-69-32zm-48 3c29 0 43-24 42-57-32 0-66-3-65 30 0 17 8 27 23 27" id="aP"/><path fill="#979ea8" d="M88-194c31-1 46 15 58 34l-1-101h50l1 261h-48c-2-10 0-23-3-31C134-8 116 4 84 4 32 4 16-41 15-95c0-56 19-97 73-99zm17 164c33 0 40-30 41-66 1-37-9-64-41-64s-38 30-39 65c0 43 13 65 39 65" id="aQ"/><g id="r"><use transform="matrix(0.07407407407407407,0,0,0.07407407407407407,0,0)" xlink:href="#aN"/><use transform="matrix(0.07407407407407407,0,0,0.07407407407407407,19.185185185185183,0)" xlink:href="#aO"/><use transform="matrix(0.07407407407407407,0,0,0.07407407407407407,34,0)" xlink:href="#aP"/><use transform="matrix(0.07407407407407407,0,0,0.07407407407407407,48.81481481481481,0)" xlink:href="#aQ"/></g><path fill="#979ea8" d="M128 0H69L1-190h53L99-40l48-150h52" id="aR"/><path fill="#979ea8" d="M25-224v-37h50v37H25zM25 0v-190h50V0H25" id="aS"/><g id="s"><use transform="matrix(0.07407407407407407,0,0,0.07407407407407407,0,0)" xlink:href="#aR"/><use transform="matrix(0.07407407407407407,0,0,0.07407407407407407,14.814814814814813,0)" xlink:href="#aS"/><use transform="matrix(0.07407407407407407,0,0,0.07407407407407407,22.22222222222222,0)" xlink:href="#aP"/></g><path fill="#979ea8" d="M186 0v-106H76V0H24v-248h52v99h110v-99h50V0h-50" id="aT"/><path fill="#979ea8" d="M24-248c93 1 206-16 204 79-1 75-69 88-152 82V0H24v-248zm52 121c47 0 100 7 100-41 0-47-54-39-100-39v80" id="aU"/><path fill="#979ea8" d="M169-182c-1-43-94-46-97-3 18 66 151 10 154 114 3 95-165 93-204 36-6-8-10-19-12-30l50-8c3 46 112 56 116 5-17-69-150-10-154-114-4-87 153-88 188-35 5 8 8 18 10 28" id="aV"/><g id="t"><use transform="matrix(0.07407407407407407,0,0,0.07407407407407407,0,0)" xlink:href="#aT"/><use transform="matrix(0.07407407407407407,0,0,0.07407407407407407,19.185185185185183,0)" xlink:href="#ar"/><use transform="matrix(0.07407407407407407,0,0,0.07407407407407407,35.407407407407405,0)" xlink:href="#ar"/><use transform="matrix(0.07407407407407407,0,0,0.07407407407407407,51.629629629629626,0)" xlink:href="#aU"/><use transform="matrix(0.07407407407407407,0,0,0.07407407407407407,69.4074074074074,0)" xlink:href="#aV"/></g><path fill="#979ea8" d="M110-194c64 0 96 36 96 99 0 64-35 99-97 99-61 0-95-36-95-99 0-62 34-99 96-99zm-1 164c35 0 45-28 45-65 0-40-10-65-43-65-34 0-45 26-45 65 0 36 10 65 43 65" id="aW"/><path fill="#979ea8" d="M147 0L96-86 75-71V0H25v-261h50v150l67-79h53l-66 74L201 0h-54" id="aX"/><path fill="#979ea8" d="M135-194c87-1 58 113 63 194h-50c-7-57 23-157-34-157-59 0-34 97-39 157H25l-1-190h47c2 12-1 28 3 38 12-26 28-41 61-42" id="aY"/><path fill="#979ea8" d="M195-6C206 82 75 100 31 46c-4-6-6-13-8-21l49-6c3 16 16 24 34 25 40 0 42-37 40-79-11 22-30 35-61 35-53 0-70-43-70-97 0-56 18-96 73-97 30 0 46 14 59 34l2-30h47zm-90-29c32 0 41-27 41-63 0-35-9-62-40-62-32 0-39 29-40 63 0 36 9 62 39 62" id="aZ"/><g id="u"><use transform="matrix(0.04938271604938272,0,0,0.04938271604938272,0,0)" xlink:href="#aN"/><use transform="matrix(0.04938271604938272,0,0,0.04938271604938272,12.790123456790125,0)" xlink:href="#aO"/><use transform="matrix(0.04938271604938272,0,0,0.04938271604938272,22.66666666666667,0)" xlink:href="#aR"/><use transform="matrix(0.04938271604938272,0,0,0.04938271604938272,32.543209876543216,0)" xlink:href="#aW"/><use transform="matrix(0.04938271604938272,0,0,0.04938271604938272,43.35802469135803,0)" xlink:href="#aX"/><use transform="matrix(0.04938271604938272,0,0,0.04938271604938272,53.23456790123457,0)" xlink:href="#aS"/><use transform="matrix(0.04938271604938272,0,0,0.04938271604938272,58.17283950617284,0)" xlink:href="#aY"/><use transform="matrix(0.04938271604938272,0,0,0.04938271604938272,68.98765432098766,0)" xlink:href="#aZ"/></g><path fill="#979ea8" d="M121-226c-27-7-43 5-38 36h38v33H83V0H34v-157H6v-33h28c-9-59 32-81 87-68v32" id="ba"/><g id="v"><use transform="matrix(0.04938271604938272,0,0,0.04938271604938272,0,0)" xlink:href="#aW"/><use transform="matrix(0.04938271604938272,0,0,0.04938271604938272,10.814814814814815,0)" xlink:href="#ba"/></g><path fill="#979ea8" d="M135-194c52 0 70 43 70 98 0 56-19 99-73 100-30 1-46-15-58-35L72 0H24l1-261h50v104c11-23 29-37 60-37zM114-30c31 0 40-27 40-66 0-37-7-63-39-63s-41 28-41 65c0 36 8 64 40 64" id="bb"/><path fill="#979ea8" d="M14-72v-43h91v43H14" id="bc"/><path fill="#979ea8" d="M67-125c0 53 21 87 73 88 37 1 54-22 65-47l45 17C233-25 199 4 140 4 58 4 20-42 15-125 8-235 124-281 211-232c18 10 29 29 36 50l-46 12c-8-25-30-41-62-41-52 0-71 34-72 86" id="bd"/><path fill="#979ea8" d="M199 0l-22-63H83L61 0H9l90-248h61L250 0h-51zm-33-102l-36-108c-10 38-24 72-36 108h72" id="be"/><path fill="#979ea8" d="M62-158H24l-5-90h48" id="bf"/><g id="w"><use transform="matrix(0.04938271604938272,0,0,0.04938271604938272,0,0)" xlink:href="#aV"/><use transform="matrix(0.04938271604938272,0,0,0.04938271604938272,11.851851851851853,0)" xlink:href="#at"/><use transform="matrix(0.04938271604938272,0,0,0.04938271604938272,22.666666666666668,0)" xlink:href="#bb"/><use transform="matrix(0.04938271604938272,0,0,0.04938271604938272,33.48148148148148,0)" xlink:href="#bc"/><use transform="matrix(0.04938271604938272,0,0,0.04938271604938272,39.358024691358025,0)" xlink:href="#bd"/><use transform="matrix(0.04938271604938272,0,0,0.04938271604938272,52.14814814814815,0)" xlink:href="#be"/><use transform="matrix(0.04938271604938272,0,0,0.04938271604938272,64.93827160493828,0)" xlink:href="#bf"/><use transform="matrix(0.04938271604938272,0,0,0.04938271604938272,69.13580246913581,0)" xlink:href="#au"/></g><g id="x"><use transform="matrix(0.04938271604938272,0,0,0.04938271604938272,0,0)" xlink:href="#aN"/><use transform="matrix(0.04938271604938272,0,0,0.04938271604938272,12.790123456790125,0)" xlink:href="#aO"/><use transform="matrix(0.04938271604938272,0,0,0.04938271604938272,22.66666666666667,0)" xlink:href="#aR"/><use transform="matrix(0.04938271604938272,0,0,0.04938271604938272,32.543209876543216,0)" xlink:href="#aW"/><use transform="matrix(0.04938271604938272,0,0,0.04938271604938272,43.35802469135803,0)" xlink:href="#aX"/><use transform="matrix(0.04938271604938272,0,0,0.04938271604938272,53.23456790123457,0)" xlink:href="#aS"/><use transform="matrix(0.04938271604938272,0,0,0.04938271604938272,58.17283950617284,0)" xlink:href="#aY"/><use transform="matrix(0.04938271604938272,0,0,0.04938271604938272,68.98765432098766,0)" xlink:href="#aZ"/></g><g id="y"><use transform="matrix(0.04938271604938272,0,0,0.04938271604938272,0,0)" xlink:href="#aW"/><use transform="matrix(0.04938271604938272,0,0,0.04938271604938272,10.814814814814815,0)" xlink:href="#ba"/></g><path fill="#979ea8" d="M190-63c-7 42-38 67-86 67-59 0-84-38-90-98-12-110 154-137 174-36l-49 2c-2-19-15-32-35-32-30 0-35 28-38 64-6 74 65 87 74 30" id="bg"/><g id="z"><use transform="matrix(0.04938271604938272,0,0,0.04938271604938272,0,0)" xlink:href="#bb"/><use transform="matrix(0.04938271604938272,0,0,0.04938271604938272,10.814814814814815,0)" xlink:href="#aP"/><use transform="matrix(0.04938271604938272,0,0,0.04938271604938272,20.69135802469136,0)" xlink:href="#au"/><use transform="matrix(0.04938271604938272,0,0,0.04938271604938272,30.567901234567906,0)" xlink:href="#aS"/><use transform="matrix(0.04938271604938272,0,0,0.04938271604938272,35.50617283950618,0)" xlink:href="#bg"/></g><g id="A"><use transform="matrix(0.04938271604938272,0,0,0.04938271604938272,0,0)" xlink:href="#bd"/><use transform="matrix(0.04938271604938272,0,0,0.04938271604938272,12.790123456790125,0)" xlink:href="#aO"/><use transform="matrix(0.04938271604938272,0,0,0.04938271604938272,22.66666666666667,0)" xlink:href="#as"/><use transform="matrix(0.04938271604938272,0,0,0.04938271604938272,29.580246913580254,0)" xlink:href="#av"/><use transform="matrix(0.04938271604938272,0,0,0.04938271604938272,35.4567901234568,0)" xlink:href="#aS"/><use transform="matrix(0.04938271604938272,0,0,0.04938271604938272,40.39506172839507,0)" xlink:href="#ba"/><use transform="matrix(0.04938271604938272,0,0,0.04938271604938272,46.271604938271615,0)" xlink:href="#aS"/><use transform="matrix(0.04938271604938272,0,0,0.04938271604938272,51.209876543209894,0)" xlink:href="#bg"/><use transform="matrix(0.04938271604938272,0,0,0.04938271604938272,61.08641975308644,0)" xlink:href="#aP"/><use transform="matrix(0.04938271604938272,0,0,0.04938271604938272,70.96296296296298,0)" xlink:href="#av"/><use transform="matrix(0.04938271604938272,0,0,0.04938271604938272,76.83950617283952,0)" xlink:href="#aO"/><use transform="matrix(0.04938271604938272,0,0,0.04938271604938272,86.71604938271606,0)" xlink:href="#au"/></g><path fill="#979ea8" d="M24 0v-248h52V0H24" id="bh"/><path fill="#979ea8" d="M114-157C55-157 80-60 75 0H25v-261h50l-1 109c12-26 28-41 61-42 86-1 58 113 63 194h-50c-7-57 23-157-34-157" id="bi"/><g id="B"><use transform="matrix(0.061728395061728385,0,0,0.061728395061728385,0,0)" xlink:href="#bh"/><use transform="matrix(0.061728395061728385,0,0,0.061728395061728385,6.1728395061728385,0)" xlink:href="#aY"/><use transform="matrix(0.061728395061728385,0,0,0.061728395061728385,19.691358024691354,0)" xlink:href="#bi"/><use transform="matrix(0.061728395061728385,0,0,0.061728395061728385,33.20987654320987,0)" xlink:href="#aO"/><use transform="matrix(0.061728395061728385,0,0,0.061728395061728385,45.55555555555555,0)" xlink:href="#as"/><use transform="matrix(0.061728395061728385,0,0,0.061728395061728385,54.197530864197525,0)" xlink:href="#aS"/><use transform="matrix(0.061728395061728385,0,0,0.061728395061728385,60.37037037037037,0)" xlink:href="#av"/><use transform="matrix(0.061728395061728385,0,0,0.061728395061728385,67.71604938271605,0)" xlink:href="#aO"/><use transform="matrix(0.061728395061728385,0,0,0.061728395061728385,80.06172839506172,0)" xlink:href="#aQ"/></g><g id="C"><use transform="matrix(0.061728395061728385,0,0,0.061728395061728385,0,0)" xlink:href="#ar"/><use transform="matrix(0.061728395061728385,0,0,0.061728395061728385,12.283950617283947,0)" xlink:href="#as"/><use transform="matrix(0.061728395061728385,0,0,0.061728395061728385,20.925925925925924,0)" xlink:href="#at"/><use transform="matrix(0.061728395061728385,0,0,0.061728395061728385,34.44444444444444,0)" xlink:href="#au"/><use transform="matrix(0.061728395061728385,0,0,0.061728395061728385,46.79012345679012,0)" xlink:href="#av"/></g><g id="D"><use transform="matrix(0.06172839506172839,0,0,0.06172839506172839,0,0)" xlink:href="#ap"/><use transform="matrix(0.06172839506172839,0,0,0.06172839506172839,14.814814814814813,0)" xlink:href="#R"/><use transform="matrix(0.06172839506172839,0,0,0.06172839506172839,27.160493827160494,0)" xlink:href="#S"/><use transform="matrix(0.06172839506172839,0,0,0.06172839506172839,34.50617283950617,0)" xlink:href="#am"/><use transform="matrix(0.06172839506172839,0,0,0.06172839506172839,45.61728395061728,0)" xlink:href="#R"/><use transform="matrix(0.06172839506172839,0,0,0.06172839506172839,57.962962962962955,0)" xlink:href="#S"/></g><path fill="#3a414a" d="M212-179c-10-28-35-45-73-45-59 0-87 40-87 99 0 60 29 101 89 101 43 0 62-24 78-52l27 14C228-24 195 4 139 4 59 4 22-46 18-125c-6-104 99-153 187-111 19 9 31 26 39 46" id="bj"/><g id="E"><use transform="matrix(0.06172839506172839,0,0,0.06172839506172839,0,0)" xlink:href="#bj"/><use transform="matrix(0.06172839506172839,0,0,0.06172839506172839,15.987654320987653,0)" xlink:href="#R"/><use transform="matrix(0.06172839506172839,0,0,0.06172839506172839,28.333333333333332,0)" xlink:href="#S"/><use transform="matrix(0.06172839506172839,0,0,0.06172839506172839,35.67901234567901,0)" xlink:href="#T"/><use transform="matrix(0.06172839506172839,0,0,0.06172839506172839,41.851851851851855,0)" xlink:href="#U"/><use transform="matrix(0.06172839506172839,0,0,0.06172839506172839,46.7283950617284,0)" xlink:href="#V"/><use transform="matrix(0.06172839506172839,0,0,0.06172839506172839,52.90123456790124,0)" xlink:href="#U"/><use transform="matrix(0.06172839506172839,0,0,0.06172839506172839,57.777777777777786,0)" xlink:href="#W"/><use transform="matrix(0.06172839506172839,0,0,0.06172839506172839,68.8888888888889,0)" xlink:href="#X"/><use transform="matrix(0.06172839506172839,0,0,0.06172839506172839,81.23456790123458,0)" xlink:href="#T"/><use transform="matrix(0.06172839506172839,0,0,0.06172839506172839,87.40740740740742,0)" xlink:href="#R"/><use transform="matrix(0.06172839506172839,0,0,0.06172839506172839,99.7530864197531,0)" xlink:href="#an"/></g><g id="F"><use transform="matrix(0.06172839506172839,0,0,0.06172839506172839,0,0)" xlink:href="#aq"/><use transform="matrix(0.06172839506172839,0,0,0.06172839506172839,15.987654320987653,0)" xlink:href="#an"/><use transform="matrix(0.06172839506172839,0,0,0.06172839506172839,27.098765432098766,0)" xlink:href="#R"/><use transform="matrix(0.06172839506172839,0,0,0.06172839506172839,39.44444444444444,0)" xlink:href="#S"/></g><g id="G"><use transform="matrix(0.06172839506172839,0,0,0.06172839506172839,0,0)" xlink:href="#al"/><use transform="matrix(0.06172839506172839,0,0,0.06172839506172839,15.987654320987653,0)" xlink:href="#R"/><use transform="matrix(0.06172839506172839,0,0,0.06172839506172839,28.333333333333332,0)" xlink:href="#am"/><use transform="matrix(0.06172839506172839,0,0,0.06172839506172839,39.44444444444444,0)" xlink:href="#U"/><use transform="matrix(0.06172839506172839,0,0,0.06172839506172839,44.32098765432099,0)" xlink:href="#W"/><use transform="matrix(0.06172839506172839,0,0,0.06172839506172839,55.4320987654321,0)" xlink:href="#R"/></g><path fill="#3a414a" d="M177-190C167-65 218 103 67 71c-23-6-38-20-44-43l32-5c15 47 100 32 89-28v-30C133-14 115 1 83 1 29 1 15-40 15-95c0-56 16-97 71-98 29-1 48 16 59 35 1-10 0-23 2-32h30zM94-22c36 0 50-32 50-73 0-42-14-75-50-75-39 0-46 34-46 75s6 73 46 73" id="bk"/><path fill="#3a414a" d="M24 0v-261h32V0H24" id="bl"/><g id="H"><use transform="matrix(0.06172839506172839,0,0,0.06172839506172839,0,0)" xlink:href="#al"/><use transform="matrix(0.06172839506172839,0,0,0.06172839506172839,15.987654320987653,0)" xlink:href="#U"/><use transform="matrix(0.06172839506172839,0,0,0.06172839506172839,20.864197530864196,0)" xlink:href="#bk"/><use transform="matrix(0.06172839506172839,0,0,0.06172839506172839,33.20987654320987,0)" xlink:href="#U"/><use transform="matrix(0.06172839506172839,0,0,0.06172839506172839,38.08641975308642,0)" xlink:href="#T"/><use transform="matrix(0.06172839506172839,0,0,0.06172839506172839,44.25925925925926,0)" xlink:href="#X"/><use transform="matrix(0.06172839506172839,0,0,0.06172839506172839,56.60493827160494,0)" xlink:href="#bl"/></g><g id="I"><use transform="matrix(0.06172839506172839,0,0,0.06172839506172839,0,0)" xlink:href="#ap"/><use transform="matrix(0.06172839506172839,0,0,0.06172839506172839,14.814814814814813,0)" xlink:href="#U"/><use transform="matrix(0.06172839506172839,0,0,0.06172839506172839,19.691358024691354,0)" xlink:href="#bk"/><use transform="matrix(0.06172839506172839,0,0,0.06172839506172839,32.03703703703703,0)" xlink:href="#aA"/><use transform="matrix(0.06172839506172839,0,0,0.06172839506172839,44.38271604938271,0)" xlink:href="#U"/><use transform="matrix(0.06172839506172839,0,0,0.06172839506172839,49.25925925925925,0)" xlink:href="#aA"/><use transform="matrix(0.06172839506172839,0,0,0.06172839506172839,61.60493827160493,0)" xlink:href="#bk"/></g><g id="K"><use transform="matrix(0.06172839506172839,0,0,0.06172839506172839,0,0)" xlink:href="#ap"/><use transform="matrix(0.06172839506172839,0,0,0.06172839506172839,14.814814814814813,0)" xlink:href="#U"/><use transform="matrix(0.06172839506172839,0,0,0.06172839506172839,19.691358024691354,0)" xlink:href="#bk"/><use transform="matrix(0.06172839506172839,0,0,0.06172839506172839,32.03703703703703,0)" xlink:href="#aA"/></g><g id="L"><use transform="matrix(0.06172839506172839,0,0,0.06172839506172839,0,0)" xlink:href="#T"/><use transform="matrix(0.06172839506172839,0,0,0.06172839506172839,6.172839506172839,0)" xlink:href="#ab"/></g><path fill="#3a414a" d="M210-169c-67 3-38 105-44 169h-31v-121c0-29-5-50-35-48C34-165 62-65 56 0H25l-1-190h30c1 10-1 24 2 32 10-44 99-50 107 0 11-21 27-35 58-36 85-2 47 119 55 194h-31v-121c0-29-5-49-35-48" id="bm"/><path fill="#3a414a" d="M143 0L79-87 56-68V0H24v-261h32v163l83-92h37l-77 82L181 0h-38" id="bn"/><g id="M"><use transform="matrix(0.06172839506172839,0,0,0.06172839506172839,0,0)" xlink:href="#bm"/><use transform="matrix(0.06172839506172839,0,0,0.06172839506172839,18.456790123456788,0)" xlink:href="#X"/><use transform="matrix(0.06172839506172839,0,0,0.06172839506172839,30.80246913580247,0)" xlink:href="#S"/><use transform="matrix(0.06172839506172839,0,0,0.06172839506172839,38.148148148148145,0)" xlink:href="#bn"/></g><g id="N"><use transform="matrix(0.06172839506172839,0,0,0.06172839506172839,0,0)" xlink:href="#X"/><use transform="matrix(0.06172839506172839,0,0,0.06172839506172839,12.345679012345679,0)" xlink:href="#an"/></g><path fill="#3a414a" d="M206 0h-36l-40-164L89 0H53L-1-190h32L70-26l43-164h34l41 164 42-164h31" id="bo"/><g id="O"><use transform="matrix(0.06172839506172839,0,0,0.06172839506172839,0,0)" xlink:href="#T"/><use transform="matrix(0.06172839506172839,0,0,0.06172839506172839,6.172839506172839,0)" xlink:href="#S"/><use transform="matrix(0.06172839506172839,0,0,0.06172839506172839,13.518518518518519,0)" xlink:href="#Z"/><use transform="matrix(0.06172839506172839,0,0,0.06172839506172839,25.864197530864196,0)" xlink:href="#an"/><use transform="matrix(0.06172839506172839,0,0,0.06172839506172839,36.9753086419753,0)" xlink:href="#T"/><use transform="matrix(0.06172839506172839,0,0,0.06172839506172839,43.148148148148145,0)" xlink:href="#bo"/><use transform="matrix(0.06172839506172839,0,0,0.06172839506172839,59.1358024691358,0)" xlink:href="#ab"/><use transform="matrix(0.06172839506172839,0,0,0.06172839506172839,71.48148148148148,0)" xlink:href="#S"/><use transform="matrix(0.06172839506172839,0,0,0.06172839506172839,78.82716049382717,0)" xlink:href="#T"/><use transform="matrix(0.06172839506172839,0,0,0.06172839506172839,85,0)" xlink:href="#aa"/><use transform="matrix(0.06172839506172839,0,0,0.06172839506172839,97.34567901234568,0)" xlink:href="#ac"/></g><path fill="#979ea8" d="M238-95c0 69-44 99-111 99C63 4 22-25 22-93v-155h51v151c-1 38 19 59 55 60 90 1 49-130 58-211h52v153" id="bp"/><g id="P"><use transform="matrix(0.07407407407407407,0,0,0.07407407407407407,0,0)" xlink:href="#bp"/><use transform="matrix(0.07407407407407407,0,0,0.07407407407407407,19.185185185185183,0)" xlink:href="#au"/><use transform="matrix(0.07407407407407407,0,0,0.07407407407407407,34,0)" xlink:href="#aO"/></g></defs></g></svg>